HIERARCHY
ROOT Hips
{
  OFFSET 53.7651 91.6464 6.48961
  CHANNELS 6 Xposition Yposition Zposition Zrotation Xrotation Yrotation
  JOINT spine
  {
    OFFSET 0 6.84637 0.3937
    CHANNELS 3 Zrotation Xrotation Yrotation
    JOINT spine1
    {
      OFFSET 0 9.49621 0
      CHANNELS 3 Zrotation Xrotation Yrotation
      JOINT spine2
      {
        OFFSET 0 9.09909 0
        CHANNELS 3 Zrotation Xrotation Yrotation
        JOINT Neck
        {
          OFFSET 0 23.3612 1.11378
          CHANNELS 3 Zrotation Xrotation Yrotation
          JOINT Head
          {
            OFFSET 0 7.05802 0
            CHANNELS 3 Zrotation Xrotation Yrotation
            End Site
            {
              OFFSET 0 17.0844 -5.63419
            }
          }
        }
        JOINT RightShoulder
        {
          OFFSET -3.83136 9.82631 -0.533491
          CHANNELS 3 Zrotation Xrotation Yrotation
          JOINT RightArm
          {
            OFFSET 0 12.8881 0
            CHANNELS 3 Zrotation Xrotation Yrotation
            JOINT RightArmRoll
            {
              OFFSET 0 6.50617 0
              CHANNELS 3 Zrotation Xrotation Yrotation
              JOINT RightForeArm
              {
                OFFSET 0 18.9501 0
                CHANNELS 3 Zrotation Xrotation Yrotation
                JOINT RightForeArmRoll
                {
                  OFFSET 0 7.30092 0
                  CHANNELS 3 Zrotation Xrotation Yrotation
                  JOINT RightHand
                  {
                    OFFSET 0 14.6514 0
                    CHANNELS 3 Zrotation Xrotation Yrotation
                    End Site
                    {
                      OFFSET 0 0 0
                    }
                  }
                }
              }
            }
          }
        }
        JOINT LeftShoulder
        {
          OFFSET 3.83136 9.82631 -0.533491
          CHANNELS 3 Zrotation Xrotation Yrotation
          JOINT LeftArm
          {
            OFFSET 0 12.8881 0
            CHANNELS 3 Zrotation Xrotation Yrotation
            JOINT LeftArmRoll
            {
              OFFSET 0 6.50616 0
              CHANNELS 3 Zrotation Xrotation Yrotation
              JOINT LeftForeArm
              {
                OFFSET 0 18.9501 0
                CHANNELS 3 Zrotation Xrotation Yrotation
                JOINT LeftForeArmRoll
                {
                  OFFSET 0 7.30092 0
                  CHANNELS 3 Zrotation Xrotation Yrotation
                  JOINT LeftHand
                  {
                    OFFSET 0 14.6514 0
                    CHANNELS 3 Zrotation Xrotation Yrotation
                    End Site
                    {
                      OFFSET 0 0 0
                    }
                  }
                }
              }
            }
          }
        }
      }
    }
  }
  JOINT RightUpLeg
  {
    OFFSET -6.06837 -1.11278 -0.933477
    CHANNELS 3 Zrotation Xrotation Yrotation
    JOINT RightUpLegRoll
    {
      OFFSET 0 17.1796 0
      CHANNELS 3 Zrotation Xrotation Yrotation
      JOINT RightLeg
      {
        OFFSET 0 -21.2743 0
        CHANNELS 3 Zrotation Xrotation Yrotation
        JOINT RightLegRoll
        {
          OFFSET 0 21.3439 0
          CHANNELS 3 Zrotation Xrotation Yrotation
          JOINT RightFoot
          {
            OFFSET 0 17.7652 0
            CHANNELS 3 Zrotation Xrotation Yrotation
            JOINT RightToeBase
            {
              OFFSET 0 14.8508 0
              CHANNELS 3 Zrotation Xrotation Yrotation
              End Site
              {
                OFFSET 0.0062947 7.19214 -0.829005
              }
            }
          }
        }
      }
    }
  }
  JOINT LeftUpLeg
  {
    OFFSET 6.06837 -1.11278 -0.933477
    CHANNELS 3 Zrotation Xrotation Yrotation
    JOINT LeftUpLegRoll
    {
      OFFSET 0 17.1797 0
      CHANNELS 3 Zrotation Xrotation Yrotation
      JOINT LeftLeg
      {
        OFFSET 0 21.2742 0
        CHANNELS 3 Zrotation Xrotation Yrotation
        JOINT LeftLegRoll
        {
          OFFSET 0 21.5412 0
          CHANNELS 3 Zrotation Xrotation Yrotation
          JOINT LeftFoot
          {
            OFFSET 0 17.5679 0
            CHANNELS 3 Zrotation Xrotation Yrotation
            JOINT LeftToeBase
            {
              OFFSET 0 14.8508 0
              CHANNELS 3 Zrotation Xrotation Yrotation
              End Site
              {
                OFFSET -0.0282102 7.19213 -0.829005
              }
            }
          }
        }
      }
    }
  }
}
MOTION
Frames: 11
Frame Time: 0.00208333
54.3965 91.6289 6.76467 0.442903 -6.50402 0.0402478 0.0851511 -1.65877 -0.0932698 0.168541 0.693695 -0.189491 0.170857 2.33876 -0.192268 -4.32503 30.5044 2.01959 1.96017 -11.2892 0.464866 63.8093 4.21909 1.78037 100.672 32.7444 -23.7085 -1.34661e-005 4.41156e-007 -7.54988e-006 16.5323 58.3433 -10.8974 2.36277e-006 -5.73198e-007 -2.99999 8.02886 -4.95144 0.697671 -66.0849 0.973407 0.318879 -104.23 37.3012 22.2061 -1.32271e-006 3.4642e-006 2.78007e-006 -25.6124 52.287 14.1638 2.56232e-006 -1.03084e-006 3.01079 -8.02888 -4.95146 -0.697695 174.862 -3.57813 1.6455 180 7.01516e-015 178.794 178.48 5.22894 179.901 8.80873e-007 1.2407e-006 0.0370975 -18.4149 67.5519 19.1485 8.13649 25.2327 -3.48773 -175.488 -6.84555 -0.101484 4.54188e-006 -4.6773e-006 -1.25759 -1.35202 -4.81738 0.0818486 1.48205e-006 -6.39018e-006 -0.0339471 18.5485 67.7287 -19.3048 -8.13649 25.2327 3.48773 
54.3946 91.6293 6.77326 0.440718 -6.50385 0.0454287 0.0857646 -1.65826 -0.0930139 0.169843 0.695303 -0.189345 0.172151 2.34037 -0.192156 -4.31648 30.4949 2.01664 1.95255 -11.2886 0.4645 63.8146 4.22811 1.78446 100.526 32.6697 -23.5964 -1.34661e-005 4.41156e-007 -7.54988e-006 16.5528 58.2641 -10.8885 2.36277e-006 -5.73198e-007 -2.99999 8.02886 -4.95144 0.697671 -66.0885 0.98382 0.313815 -104.071 37.2215 22.0738 -1.32271e-006 3.4642e-006 2.78007e-006 -25.5757 52.2739 14.136 2.56232e-006 -1.03084e-006 3.01079 -8.02888 -4.95146 -0.697695 174.864 -3.57842 1.64301 180 7.01516e-015 178.794 178.482 5.23115 179.9 8.80873e-007 1.2407e-006 0.0370982 -18.4154 67.5524 19.1489 8.13649 25.2327 -3.48773 -175.484 -6.84257 -0.100972 4.54188e-006 -4.6773e-006 -1.25761 -1.34858 -4.82032 0.0820933 1.48205e-006 -6.39018e-006 -0.0339471 18.5477 67.7278 -19.3038 -8.13649 25.2327 3.48773 
54.3953 91.6269 6.76706 0.438887 -6.50349 0.0505512 0.0863193 -1.65778 -0.0927662 0.170998 0.696732 -0.189194 0.1733 2.3418 -0.192035 -4.30958 30.4859 2.01409 1.9472 -11.2877 0.464214 63.8196 4.23772 1.78894 100.381 32.5937 -23.489 -1.34661e-005 4.41156e-007 -7.54988e-006 16.5719 58.1937 -10.8808 2.36277e-006 -5.73198e-007 -2.99999 8.02886 -4.95144 0.697671 -66.0928 0.993342 0.309315 -103.911 37.1436 21.941 -1.32271e-006 3.4642e-006 2.78007e-006 -25.5409 52.2638 14.1106 2.56232e-006 -1.03084e-006 3.01079 -8.02888 -4.95146 -0.697695 174.866 -3.57817 1.64196 180 7.01516e-015 178.794 178.483 5.23246 179.9 8.80873e-007 1.2407e-006 0.0370988 -18.4159 67.5532 19.1496 8.13649 25.2327 -3.48773 -175.481 -6.83943 -0.100456 4.54188e-006 -4.6773e-006 -1.25763 -1.34543 -4.82314 0.0823162 1.48205e-006 -6.39018e-006 -0.0339471 18.5469 67.7268 -19.3029 -8.13649 25.2327 3.48773 
54.3932 91.6289 6.77214 0.437512 -6.50294 0.0555941 0.0867964 -1.6573 -0.0925291 0.171959 0.69799 -0.189032 0.174255 2.34306 -0.191897 -4.30461 30.4774 2.01204 1.9445 -11.2868 0.464065 63.8242 4.24779 1.79374 100.236 32.5166 -23.3871 -1.34661e-005 4.41156e-007 -7.54988e-006 16.5892 58.134 -10.8746 2.36277e-006 -5.73198e-007 -2.99999 8.02886 -4.95144 0.697671 -66.0977 1.00161 0.305561 -103.749 37.0679 21.808 -1.32271e-006 3.4642e-006 2.78007e-006 -25.5087 52.2569 14.0883 2.56232e-006 -1.03084e-006 3.01079 -8.02888 -4.95146 -0.697695 174.867 -3.57732 1.64265 180 7.01516e-015 178.794 178.481 5.2326 179.901 8.80873e-007 1.2407e-006 0.0370995 -18.4167 67.5541 19.1504 8.13649 25.2327 -3.48773 -175.479 -6.83612 -0.099908 4.54188e-006 -4.6773e-006 -1.25765 -1.34261 -4.8258 0.0825139 1.48205e-006 -6.39018e-006 -0.0339471 18.5461 67.7259 -19.302 -8.13649 25.2327 3.48773 
54.3933 91.6293 6.76911 0.436698 -6.50216 0.0605362 0.0871774 -1.65681 -0.0923051 0.17268 0.699082 -0.188854 0.174971 2.34415 -0.191736 -4.30185 30.4694 2.0106 1.94484 -11.286 0.46411 63.8282 4.25815 1.79879 100.091 32.4385 -23.2915 -1.34661e-005 4.41156e-007 -7.54988e-006 16.6042 58.0866 -10.87 2.36277e-006 -5.73198e-007 -2.99999 8.02886 -4.95144 0.697671 -66.1032 1.00828 0.302733 -103.586 36.9949 21.6748 -1.32271e-006 3.4642e-006 2.78007e-006 -25.4798 52.2532 14.0694 2.56232e-006 -1.03084e-006 3.01079 -8.02888 -4.95146 -0.697695 174.867 -3.5758 1.64539 180 7.01516e-015 178.794 178.475 5.23132 179.901 8.80873e-007 1.2407e-006 0.0371002 -18.4176 67.5552 19.1514 8.13649 25.2327 -3.48773 -175.477 -6.83261 -0.0993014 4.54188e-006 -4.6773e-006 -1.25767 -1.34019 -4.82828 0.0826833 1.48205e-006 -6.39018e-006 -0.0339471 18.5454 67.725 -19.3011 -8.13649 25.2327 3.48773 
54.3913 91.6299 6.77096 0.436549 -6.50112 0.0653565 0.0874436 -1.6563 -0.0920966 0.173114 0.700012 -0.188654 0.175402 2.34508 -0.191546 -4.30159 30.4618 2.00987 1.94861 -11.2856 0.464405 63.8316 4.26866 1.80405 99.9486 32.3595 -23.203 -1.34661e-005 4.41156e-007 -7.54988e-006 16.6166 58.0533 -10.8673 2.36277e-006 -5.73198e-007 -2.99999 8.02886 -4.95144 0.697671 -66.1092 1.01297 0.301014 -103.42 36.9252 21.5415 -1.32271e-006 3.4642e-006 2.78007e-006 -25.4549 52.253 14.0546 2.56232e-006 -1.03084e-006 3.01079 -8.02888 -4.95146 -0.697695 174.866 -3.57355 1.65049 180 7.01516e-015 178.794 178.466 5.22834 179.902 8.80873e-007 1.2407e-006 0.0371009 -18.4187 67.5566 19.1525 8.13649 25.2327 -3.48773 -175.476 -6.82889 -0.098609 4.54188e-006 -4.6773e-006 -1.25768 -1.33819 -4.83055 0.0828211 1.48205e-006 -6.39018e-006 -0.033947 18.5447 67.7242 -19.3003 -8.13649 25.2327 3.48773 
54.3914 91.5816 6.76805 0.437063 -6.49982 0.0701165 0.0876016 -1.65581 -0.0918985 0.173258 0.700635 -0.188445 0.175544 2.3457 -0.191339 -4.30376 30.4556 2.00977 1.95605 -11.2858 0.464923 63.8349 4.28038 1.80999 99.8056 32.2783 -23.123 -1.34661e-005 4.41156e-007 -7.54988e-006 16.627 58.0346 -10.8668 2.36277e-006 -5.73198e-007 -2.99999 8.02886 -4.95144 0.697671 -66.1166 1.01656 0.300045 -103.251 36.8581 21.4076 -1.32271e-006 3.4642e-006 2.78007e-006 -25.4343 52.2568 14.0441 2.56232e-006 -1.03084e-006 3.01079 -8.02888 -4.95146 -0.697695 174.864 -3.57038 1.65832 180 7.01516e-015 178.794 178.453 5.22363 179.903 8.80873e-007 1.2407e-006 0.0371016 -18.4201 67.5583 19.1541 8.13649 25.2327 -3.48773 -175.475 -6.82495 -0.0979123 4.54188e-006 -4.6773e-006 -1.2577 -1.33674 -4.8326 0.0829179 1.48205e-006 -6.39018e-006 -0.033947 18.544 67.7234 -19.2995 -8.13649 25.2327 3.48773 
54.3887 91.5902 6.76328 0.438119 -6.49828 0.074886 0.0876778 -1.6554 -0.0917041 0.17316 0.700834 -0.188244 0.175446 2.3459 -0.191133 -4.30801 30.4516 2.01013 1.96687 -11.2868 0.465577 63.8388 4.29428 1.81704 99.6608 32.1939 -23.0516 -1.34661e-005 4.41156e-007 -7.54988e-006 16.6367 58.0289 -10.8687 2.36277e-006 -5.73198e-007 -2.99999 8.02886 -4.95144 0.697671 -66.1259 1.02011 0.299355 -103.078 36.7925 21.2725 -1.32271e-006 3.4642e-006 2.78007e-006 -25.417 52.2649 14.0375 2.56232e-006 -1.03084e-006 3.01079 -8.02888 -4.95146 -0.697695 174.861 -3.56622 1.66879 180 7.01516e-015 178.794 178.436 5.21746 179.904 8.80873e-007 1.2407e-006 0.0371023 -18.422 67.5606 19.1561 8.13649 25.2327 -3.48773 -175.475 -6.82079 -0.0973023 4.54188e-006 -4.6773e-006 -1.25772 -1.33587 -4.83444 0.0829707 1.48205e-006 -6.39018e-006 -0.033947 18.5434 67.7227 -19.2988 -8.13649 25.2327 3.48773 
54.3913 91.6325 6.76551 0.439642 -6.49651 0.0796558 0.0876833 -1.65508 -0.0915136 0.172858 0.700665 -0.188049 0.175145 2.34573 -0.190928 -4.31415 30.4495 2.0109 1.9807 -11.2883 0.466336 63.8431 4.31004 1.82505 99.5144 32.1068 -22.9876 -1.34661e-005 4.41156e-007 -7.54988e-006 16.6454 58.0348 -10.8726 2.36277e-006 -5.73198e-007 -2.99999 8.02886 -4.95144 0.697671 -66.1369 1.02353 0.298953 -102.901 36.7284 21.1363 -1.32271e-006 3.4642e-006 2.78007e-006 -25.4027 52.277 14.0343 2.56232e-006 -1.03084e-006 3.01079 -8.02888 -4.95146 -0.697695 174.857 -3.56118 1.68152 180 7.01515e-015 178.794 178.415 5.21 179.906 8.80873e-007 1.2407e-006 0.0371029 -18.4242 67.5634 19.1585 8.13649 25.2327 -3.48773 -175.475 -6.81642 -0.0967661 4.54188e-006 -4.6773e-006 -1.25773 -1.33549 -4.8361 0.0829856 1.48205e-006 -6.39018e-006 -0.033947 18.5428 67.722 -19.2981 -8.13649 25.2327 3.48773 
54.3889 91.6168 6.76225 0.441555 -6.49454 0.0844167 0.0876291 -1.65481 -0.0913273 0.172388 0.700183 -0.187859 0.174676 2.34525 -0.190724 -4.32199 30.4488 2.01204 1.99716 -11.2899 0.467172 63.8477 4.32735 1.83386 99.3668 32.0175 -22.9299 -1.34661e-005 4.41156e-007 -7.54988e-006 16.6533 58.0506 -10.8781 2.36277e-006 -5.73198e-007 -2.99999 8.02886 -4.95144 0.697671 -66.1494 1.02674 0.298849 -102.721 36.6657 20.9992 -1.32271e-006 3.4642e-006 2.78007e-006 -25.3906 52.2927 14.034 2.56232e-006 -1.03084e-006 3.01079 -8.02888 -4.95146 -0.697695 174.852 -3.55539 1.69615 180 7.01515e-015 178.794 178.391 5.2015 179.908 8.80873e-007 1.2407e-006 0.0371036 -18.4268 67.5666 19.1612 8.13649 25.2327 -3.48773 -175.476 -6.81186 -0.0962913 4.54188e-006 -4.6773e-006 -1.25775 -1.33553 -4.83761 0.0829687 1.48205e-006 -6.39018e-006 -0.033947 18.5423 67.7214 -19.2974 -8.13649 25.2327 3.48773 
54.3835 91.5891 6.76046 0.443783 -6.49238 0.0891595 0.0875262 -1.65461 -0.0911454 0.171784 0.699443 -0.187673 0.174076 2.34451 -0.190519 -4.33134 30.4492 2.01351 2.01587 -11.2914 0.468052 63.8525 4.34589 1.84334 99.2181 31.9265 -22.8774 -1.34661e-005 4.41156e-007 -7.54988e-006 16.6603 58.0751 -10.8851 2.36277e-006 -5.73198e-007 -2.99999 8.02886 -4.95144 0.697671 -66.1631 1.02964 0.299052 -102.539 36.6041 20.8612 -1.32271e-006 3.4642e-006 2.78007e-006 -25.3803 52.3116 14.0361 2.56232e-006 -1.03084e-006 3.01079 -8.02888 -4.95146 -0.697695 174.847 -3.54896 1.71229 180 7.01515e-015 178.794 178.365 5.19215 179.91 8.80873e-007 1.2407e-006 0.0371043 -18.4296 67.57 19.1643 8.13649 25.2327 -3.48773 -175.477 -6.80714 -0.0958649 4.54188e-006 -4.6773e-006 -1.25776 -1.33591 -4.839 0.0829262 1.48205e-006 -6.39018e-006 -0.0339469 18.5418 67.7208 -19.2968 -8.13649 25.2327 3.48773 
